<svg width="24" height="24" viewBox="0 0 24 24" fill="none" xmlns="http://www.w3.org/2000/svg">
<path d="M11.9992 22.4985C18.9998 22.4985 22.4985 17.7975 22.4985 11.9985C22.4985 6.201 18.9998 1.5 11.9985 1.5C4.99875 1.5 1.5 6.201 1.5 11.9992C1.5 17.7975 4.998 22.4985 11.9992 22.4985Z" fill="#FFB02E"/>
<path d="M8.88001 13.8428C8.7733 13.6749 8.60426 13.5563 8.41009 13.5131C8.21592 13.4698 8.01252 13.5055 7.84464 13.6122C7.67676 13.7189 7.55814 13.8879 7.51489 14.0821C7.47164 14.2763 7.5073 14.4797 7.61401 14.6476L7.61476 14.6491L7.61626 14.6513L7.61926 14.6558L7.62601 14.6656C7.64861 14.7009 7.67289 14.7352 7.69876 14.7683C7.74376 14.8283 7.80901 14.9071 7.89376 14.9978C8.06326 15.1786 8.31601 15.4073 8.66626 15.6316C9.37501 16.0846 10.4528 16.5001 12 16.5001C13.5473 16.5001 14.625 16.0846 15.3338 15.6316C15.6164 15.4529 15.8758 15.2401 16.1063 14.9978C16.2035 14.8937 16.293 14.7827 16.374 14.6656L16.3815 14.6558L16.3838 14.6513L16.3845 14.6498L16.3853 14.6491V14.6476C16.4829 14.4801 16.5119 14.2813 16.4662 14.0929C16.4204 13.9046 16.3035 13.7412 16.14 13.6371C15.9765 13.533 15.779 13.4963 15.589 13.5347C15.3989 13.573 15.2311 13.6834 15.1208 13.8428L15.1073 13.8608C15.0777 13.8991 15.0461 13.9359 15.0128 13.9711C14.8672 14.1231 14.7035 14.2566 14.5253 14.3686C14.0603 14.6656 13.2638 15.0001 12 15.0001C10.7363 15.0001 9.93901 14.6656 9.47476 14.3686C9.29655 14.2566 9.13282 14.1231 8.98726 13.9711C8.94878 13.9305 8.91272 13.8876 8.87926 13.8428H8.88001Z" fill="#402A32"/>
<path d="M8.25 3.75H3.75C2.95435 3.75 2.19129 4.06607 1.62868 4.62868C1.06607 5.19129 0.75 5.95435 0.75 6.75V7.2555C0.750172 8.2304 1.02179 9.186 1.53444 10.0152C2.04708 10.8445 2.78049 11.5146 3.6525 11.9505L4.35375 12.3022C4.87637 12.5617 5.44592 12.7131 6.02836 12.7475C6.61081 12.7819 7.19422 12.6986 7.74375 12.5025C9.83325 11.7563 11.25 9.76875 11.25 7.55025V6.75C11.25 5.95435 10.9339 5.19129 10.3713 4.62868C9.80871 4.06607 9.04565 3.75 8.25 3.75ZM15.375 3.75H20.625C21.3212 3.75 21.9889 4.02656 22.4812 4.51884C22.9734 5.01113 23.25 5.67881 23.25 6.375V7.2555C23.2498 8.2304 22.9782 9.186 22.4656 10.0152C21.9529 10.8445 21.2195 11.5146 20.3475 11.9505L19.6462 12.3022C19.1237 12.5619 18.5541 12.7134 17.9717 12.7478C17.3892 12.7822 16.8057 12.6988 16.2562 12.5025C14.1667 11.7563 12.75 9.76875 12.75 7.55025V6.375C12.75 5.67881 13.0266 5.01113 13.5188 4.51884C14.0111 4.02656 14.6788 3.75 15.375 3.75Z" fill="#321B41"/>
<path d="M10.5 4.7655C10.2188 4.44594 9.87259 4.19006 9.48459 4.01494C9.09659 3.83982 8.67569 3.7495 8.25 3.75H3.75C2.95435 3.75 2.19129 4.06607 1.62868 4.62868C1.06607 5.19129 0.75 5.95435 0.75 6.75V7.2555C0.750172 8.2304 1.02179 9.186 1.53444 10.0152C2.04708 10.8445 2.78049 11.5146 3.6525 11.9505L4.35375 12.3023C4.87637 12.5617 5.44592 12.7131 6.02836 12.7475C6.61081 12.7819 7.19422 12.6986 7.74375 12.5025C9.83325 11.7563 11.25 9.76875 11.25 7.55025V7.5C11.25 7.30109 11.329 7.11032 11.4697 6.96967C11.6103 6.82902 11.8011 6.75 12 6.75C12.1989 6.75 12.3897 6.82902 12.5303 6.96967C12.671 7.11032 12.75 7.30109 12.75 7.5V7.55025C12.75 9.76875 14.1667 11.7563 16.2562 12.5025C16.8057 12.6988 17.3892 12.7822 17.9717 12.7478C18.5541 12.7134 19.1237 12.5619 19.6462 12.3023L20.3483 11.9513C21.2202 11.5152 21.9536 10.8449 22.4661 10.0155C22.9786 9.18615 23.25 8.23045 23.25 7.2555V6.375C23.25 5.67881 22.9734 5.01113 22.4812 4.51885C21.9889 4.02656 21.3212 3.75 20.625 3.75H15.375C14.532 3.75 13.782 4.1475 13.3013 4.7655V4.7625L13.2638 4.8C13.1205 4.94775 12.8272 5.247 12.555 5.24925H11.247C10.974 5.247 10.6815 4.94775 10.5375 4.8C10.5251 4.78744 10.5126 4.77494 10.5 4.7625V4.7655ZM8.25 4.5C8.84674 4.5 9.41903 4.73706 9.84099 5.15901C10.2629 5.58097 10.5 6.15326 10.5 6.75V7.55025C10.5 9.44775 9.2865 11.1548 7.49175 11.7953C7.03763 11.9575 6.55545 12.0266 6.07403 11.9984C5.5926 11.9702 5.1218 11.8452 4.68975 11.631L3.98775 11.28C3.2403 10.9063 2.61166 10.3319 2.17227 9.62109C1.73288 8.91028 1.5001 8.09116 1.5 7.2555V6.75C1.5 6.15326 1.73705 5.58097 2.15901 5.15901C2.58097 4.73706 3.15326 4.5 3.75 4.5H8.25ZM13.5 6.375C13.5 5.87772 13.6975 5.40081 14.0492 5.04918C14.4008 4.69755 14.8777 4.5 15.375 4.5H20.625C21.1223 4.5 21.5992 4.69755 21.9508 5.04918C22.3025 5.40081 22.5 5.87772 22.5 6.375V7.2555C22.4999 8.09116 22.2671 8.91028 21.8277 9.62109C21.3883 10.3319 20.7597 10.9063 20.0123 11.28L19.3102 11.631C18.8783 11.8454 18.4075 11.9705 17.9261 11.9989C17.4446 12.0272 16.9624 11.9582 16.5082 11.796C14.7135 11.1548 13.5 9.4485 13.5 7.55025V6.375Z" fill="#8D65C5"/>
<path d="M9.29248 7.70089C9.73123 7.26139 9.61273 6.43039 9.02698 5.84464C8.44123 5.25889 7.60948 5.13964 7.17073 5.57914C6.73123 6.01864 6.84972 6.84964 7.43547 7.43539C8.02122 8.02114 8.85298 8.14039 9.29173 7.70089H9.29248ZM21.2925 7.70089C21.7312 7.26139 21.6127 6.43039 21.027 5.84464C20.4405 5.25889 19.6095 5.13964 19.1707 5.57914C18.7312 6.01864 18.8497 6.84964 19.4355 7.43539C20.0212 8.02114 20.8537 8.14039 21.2925 7.70089Z" fill="white"/>
</svg>
