<svg width="24" height="24" viewBox="0 0 24 24" fill="none" xmlns="http://www.w3.org/2000/svg">
<path d="M8.24401 19.0823L10.125 13.875H13.9455L15.6233 19.0178C16.0395 20.0258 15.3135 21.1403 14.241 21.1403H9.65101C8.60776 21.1403 7.88401 20.0805 8.24401 19.0823Z" fill="url(#paint0_linear_34_449)"/>
<path d="M8.24401 19.0823L10.125 13.875H13.9455L15.6233 19.0178C16.0395 20.0258 15.3135 21.1403 14.241 21.1403H9.65101C8.60776 21.1403 7.88401 20.0805 8.24401 19.0823Z" fill="url(#paint1_linear_34_449)"/>
<path d="M8.24401 19.0823L10.125 13.875H13.9455L15.6233 19.0178C16.0395 20.0258 15.3135 21.1403 14.241 21.1403H9.65101C8.60776 21.1403 7.88401 20.0805 8.24401 19.0823Z" fill="url(#paint2_linear_34_449)"/>
<path d="M8.24401 19.0823L10.125 13.875H13.9455L15.6233 19.0178C16.0395 20.0258 15.3135 21.1403 14.241 21.1403H9.65101C8.60776 21.1403 7.88401 20.0805 8.24401 19.0823Z" fill="url(#paint3_radial_34_449)"/>
<path d="M3 12C3 10.2975 3.4725 8.7045 4.29525 7.34625L7.125 6L9.5685 3.33225C10.36 3.1111 11.1781 2.99932 12 3C13.2195 3 14.382 3.24225 15.4425 3.6825L17.625 7.875L20.9662 11.217C20.9888 11.475 21 11.736 21 12V13.5C21 13.8978 20.842 14.2794 20.5607 14.5607C20.2794 14.842 19.8978 15 19.5 15H4.5C4.10218 15 3.72064 14.842 3.43934 14.5607C3.15804 14.2794 3 13.8978 3 13.5V12Z" fill="url(#paint4_radial_34_449)"/>
<path d="M3 12C3 10.2975 3.4725 8.7045 4.29525 7.34625L7.125 6L9.5685 3.33225C10.36 3.1111 11.1781 2.99932 12 3C13.2195 3 14.382 3.24225 15.4425 3.6825L17.625 7.875L20.9662 11.217C20.9888 11.475 21 11.736 21 12V13.5C21 13.8978 20.842 14.2794 20.5607 14.5607C20.2794 14.842 19.8978 15 19.5 15H4.5C4.10218 15 3.72064 14.842 3.43934 14.5607C3.15804 14.2794 3 13.8978 3 13.5V12Z" fill="url(#paint5_radial_34_449)"/>
<path d="M3 12C3 10.2975 3.4725 8.7045 4.29525 7.34625L7.125 6L9.5685 3.33225C10.36 3.1111 11.1781 2.99932 12 3C13.2195 3 14.382 3.24225 15.4425 3.6825L17.625 7.875L20.9662 11.217C20.9888 11.475 21 11.736 21 12V13.5C21 13.8978 20.842 14.2794 20.5607 14.5607C20.2794 14.842 19.8978 15 19.5 15H4.5C4.10218 15 3.72064 14.842 3.43934 14.5607C3.15804 14.2794 3 13.8978 3 13.5V12Z" fill="url(#paint6_radial_34_449)"/>
<path d="M3 12C3 10.2975 3.4725 8.7045 4.29525 7.34625L7.125 6L9.5685 3.33225C10.36 3.1111 11.1781 2.99932 12 3C13.2195 3 14.382 3.24225 15.4425 3.6825L17.625 7.875L20.9662 11.217C20.9888 11.475 21 11.736 21 12V13.5C21 13.8978 20.842 14.2794 20.5607 14.5607C20.2794 14.842 19.8978 15 19.5 15H4.5C4.10218 15 3.72064 14.842 3.43934 14.5607C3.15804 14.2794 3 13.8978 3 13.5V12Z" fill="url(#paint7_radial_34_449)"/>
<path d="M3 12C3 10.2975 3.4725 8.7045 4.29525 7.34625L7.125 6L9.5685 3.33225C10.36 3.1111 11.1781 2.99932 12 3C13.2195 3 14.382 3.24225 15.4425 3.6825L17.625 7.875L20.9662 11.217C20.9888 11.475 21 11.736 21 12V13.5C21 13.8978 20.842 14.2794 20.5607 14.5607C20.2794 14.842 19.8978 15 19.5 15H4.5C4.10218 15 3.72064 14.842 3.43934 14.5607C3.15804 14.2794 3 13.8978 3 13.5V12Z" fill="url(#paint8_radial_34_449)"/>
<path d="M9.59248 3.32544C9.63148 3.54294 9.65248 3.76794 9.65248 3.99744C9.65248 6.05244 7.97998 7.71744 5.92498 7.72494C5.35983 7.72491 4.80225 7.59507 4.29523 7.34544C5.48434 5.37981 7.3787 3.94202 9.59173 3.32544H9.59248Z" fill="#FFBCBD"/>
<path d="M9.59248 3.32544C9.63148 3.54294 9.65248 3.76794 9.65248 3.99744C9.65248 6.05244 7.97998 7.71744 5.92498 7.72494C5.35983 7.72491 4.80225 7.59507 4.29523 7.34544C5.48434 5.37981 7.3787 3.94202 9.59173 3.32544H9.59248Z" fill="url(#paint9_radial_34_449)"/>
<path d="M15.4298 3.67651C14.8689 4.50091 14.5702 5.47545 14.5725 6.47251C14.5728 7.24706 14.754 8.01083 15.1016 8.70298C15.4492 9.39514 15.9537 9.99655 16.5748 10.4593C17.1959 10.9221 17.9165 11.2334 18.6792 11.3684C19.4418 11.5035 20.2255 11.4586 20.9678 11.2373C20.6805 7.81201 18.4755 4.93276 15.4298 3.67651Z" fill="#FFE1E9"/>
<path d="M15.4298 3.67651C14.8689 4.50091 14.5702 5.47545 14.5725 6.47251C14.5728 7.24706 14.754 8.01083 15.1016 8.70298C15.4492 9.39514 15.9537 9.99655 16.5748 10.4593C17.1959 10.9221 17.9165 11.2334 18.6792 11.3684C19.4418 11.5035 20.2255 11.4586 20.9678 11.2373C20.6805 7.81201 18.4755 4.93276 15.4298 3.67651Z" fill="url(#paint10_radial_34_449)"/>
<path d="M11.205 12.7799C11.75 12.7799 12.2727 12.5634 12.6581 12.178C13.0435 11.7926 13.26 11.2699 13.26 10.7249C13.26 10.1799 13.0435 9.6572 12.6581 9.27182C12.2727 8.88643 11.75 8.66992 11.205 8.66992C10.66 8.66992 10.1373 8.88643 9.75192 9.27182C9.36653 9.6572 9.15002 10.1799 9.15002 10.7249C9.15002 11.2699 9.36653 11.7926 9.75192 12.178C10.1373 12.5634 10.66 12.7799 11.205 12.7799Z" fill="url(#paint11_radial_34_449)"/>
<defs>
<linearGradient id="paint0_linear_34_449" x1="11.946" y1="13.4265" x2="11.946" y2="21.141" gradientUnits="userSpaceOnUse">
<stop stop-color="#F4869C"/>
<stop offset="0.272" stop-color="#FA89A2"/>
<stop offset="0.426" stop-color="#FFAAAD"/>
<stop offset="0.709" stop-color="#FFBDAF"/>
<stop offset="0.882" stop-color="#FFB6C3"/>
<stop offset="1" stop-color="#FF92C0"/>
</linearGradient>
<linearGradient id="paint1_linear_34_449" x1="8.15026" y1="18.3698" x2="9.14101" y2="18.7267" gradientUnits="userSpaceOnUse">
<stop stop-color="#DB937A"/>
<stop offset="1" stop-color="#E39A81" stop-opacity="0"/>
</linearGradient>
<linearGradient id="paint2_linear_34_449" x1="16.1723" y1="16.641" x2="14.4375" y2="17.508" gradientUnits="userSpaceOnUse">
<stop offset="0.389" stop-color="#D26982"/>
<stop offset="1" stop-color="#DC7388" stop-opacity="0"/>
</linearGradient>
<radialGradient id="paint3_radial_34_449" cx="0" cy="0" r="1" gradientUnits="userSpaceOnUse" gradientTransform="translate(13.5473 18.6098) rotate(87.2073) scale(1.92416 3.5183)">
<stop stop-color="#FFD2BA"/>
<stop offset="1" stop-color="#FFD6C1" stop-opacity="0"/>
</radialGradient>
<radialGradient id="paint4_radial_34_449" cx="0" cy="0" r="1" gradientUnits="userSpaceOnUse" gradientTransform="translate(12 10.2188) rotate(90) scale(11.5312 11.7353)">
<stop offset="0.547" stop-color="#FF465A"/>
<stop offset="1" stop-color="#AF1816"/>
</radialGradient>
<radialGradient id="paint5_radial_34_449" cx="0" cy="0" r="1" gradientUnits="userSpaceOnUse" gradientTransform="translate(14.5785 9) rotate(111.922) scale(4.14334 4.41834)">
<stop stop-color="#FF6783"/>
<stop offset="1" stop-color="#FF6783" stop-opacity="0"/>
</radialGradient>
<radialGradient id="paint6_radial_34_449" cx="0" cy="0" r="1" gradientUnits="userSpaceOnUse" gradientTransform="translate(13.6875 6.46875) rotate(81.3359) scale(9.95738 25.9826)">
<stop offset="0.595" stop-color="#FB3E7B" stop-opacity="0"/>
<stop offset="0.958" stop-color="#CF2FAA"/>
</radialGradient>
<radialGradient id="paint7_radial_34_449" cx="0" cy="0" r="1" gradientUnits="userSpaceOnUse" gradientTransform="translate(6.60975 11.625) rotate(36.1932) scale(4.76283 5.09772)">
<stop stop-color="#FF5152"/>
<stop offset="0.544" stop-color="#FE5152" stop-opacity="0"/>
</radialGradient>
<radialGradient id="paint8_radial_34_449" cx="0" cy="0" r="1" gradientUnits="userSpaceOnUse" gradientTransform="translate(7.0785 5.391) rotate(65.8545) scale(5.95884 5.81918)">
<stop stop-color="#FF3942"/>
<stop offset="0.756" stop-color="#FF3A43" stop-opacity="0"/>
</radialGradient>
<radialGradient id="paint9_radial_34_449" cx="0" cy="0" r="1" gradientUnits="userSpaceOnUse" gradientTransform="translate(8.39098 6.79719) rotate(144.597) scale(6.95853 3.8224)">
<stop offset="0.136" stop-color="#FFBDC0"/>
<stop offset="0.562" stop-color="#E8A7A1"/>
<stop offset="0.795" stop-color="#BB867E"/>
</radialGradient>
<radialGradient id="paint10_radial_34_449" cx="0" cy="0" r="1" gradientUnits="userSpaceOnUse" gradientTransform="translate(15.047 9.42181) rotate(41.561) scale(7.91355 6.22467)">
<stop offset="0.05" stop-color="#FFE0EA"/>
<stop offset="0.636" stop-color="#FFE0DE"/>
<stop offset="0.888" stop-color="#FFBFBB"/>
<stop offset="1" stop-color="#F5BCAE"/>
</radialGradient>
<radialGradient id="paint11_radial_34_449" cx="0" cy="0" r="1" gradientUnits="userSpaceOnUse" gradientTransform="translate(12.7037 10.7251) rotate(159.141) scale(4.76546)">
<stop stop-color="#FFCDEB"/>
<stop offset="0.728" stop-color="#FFB8D9"/>
</radialGradient>
</defs>
</svg>
